<?xml version="1.0" encoding="utf-8"?>
<!-- Generator: Adobe Illustrator 16.0.0, SVG Export Plug-In . SVG Version: 6.00 Build 0)  -->
<!DOCTYPE svg PUBLIC "-//W3C//DTD SVG 1.1//EN" "http://www.w3.org/Graphics/SVG/1.1/DTD/svg11.dtd">
<svg version="1.1" id="Layer_1" xmlns="http://www.w3.org/2000/svg" xmlns:xlink="http://www.w3.org/1999/xlink" x="0px" y="0px"
	 width="792px" height="612px" viewBox="0 0 792 612" enable-background="new 0 0 792 612" xml:space="preserve">
<g>
	<path d="M398.4,243.232l1.498-0.744l-0.515-0.959l1.923-2.068l1.098,0.5l0.613-1.625l-1.267-0.438l-0.224-2.363l1.172-0.846
		l-0.848-1.248l-0.971,0.5l-1.889-1.8l0.447-1.14l-1.648-0.621l-0.535,1.176l-2.421,0.13l-0.726-1.167l-1.418,0.764l0.599,1.144
		l-1.7,1.661l-1.32-0.377l-0.448,1.687l1.318,0.356L391,238.542l-1.026,0.44l0.598,1.428l1.136-0.438l2.033,1.822l-0.343,1.078
		l1.544,0.398l0.309-0.934l2.667-0.047L398.4,243.232z M391.781,236.951c0-2.506,2.032-4.537,4.539-4.537s4.538,2.031,4.538,4.537
		c0,2.507-2.031,4.537-4.538,4.537S391.781,239.458,391.781,236.951z"/>
	<path d="M435.999,299.168c-1.441,0-2.687,0.857-3.253,2.088l-10.714-4.039l-0.081-3.99l0.002-0.004v-0.277l-18.912-7.84
		l-0.01-0.709h0.002l0.004-0.566c0.008-1.09,0.073-2.219,0.186-3.363l21.251,8.76c-0.031,0.188-0.048,0.381-0.048,0.578
		c0,1.975,1.607,3.58,3.58,3.58c1.975,0,3.582-1.605,3.582-3.58s-1.607-3.582-3.582-3.582c-1.373,0-2.569,0.781-3.17,1.92
		l-21.482-8.855c1.209-9.797,5.475-20.465,5.523-20.588l0.071-0.176l-0.004-0.014l11.569-18.67c1.182-0.77,1.965-2.104,1.965-3.615
		c0-2.205-1.663-4.028-3.801-4.283l-10.213-12.946c0.196-2.724-0.262-4.587-1.361-5.539c-1.002-0.868-2.143-0.618-2.19-0.606
		l-0.593,0.136l0.175,0.583c0.009,0.026,0.798,2.732-0.515,4.235c-0.818,0.938-2.332,1.241-4.498,0.901l-0.671-0.105l0.013,0.68
		c0.002,0.063,0.045,1.515,1.313,2.434c1.056,0.764,2.593,0.908,4.581,0.437l9.557,12.208c-0.271,0.566-0.424,1.199-0.424,1.867
		c0,1.033,0.365,1.982,0.974,2.726l-8.868,13.456c-4.107-1.533-6.387-5.721-6.995-6.986c3.582-1.145,6.183-4.502,6.183-8.459
		c0-4.896-3.983-8.881-8.88-8.881s-8.88,3.984-8.88,8.881c0,3.75,2.338,6.963,5.633,8.262c-0.428,0.941-2.729,5.574-7.116,7.193
		l-8.777-13.323c0.608-0.743,0.973-1.692,0.973-2.726c0-0.668-0.153-1.302-0.425-1.867l9.557-12.209
		c1.988,0.473,3.526,0.328,4.581-0.436c1.27-0.918,1.312-2.371,1.313-2.434l0.014-0.678l-0.671,0.104
		c-2.164,0.339-3.676,0.037-4.496-0.898c-1.308-1.494-0.525-4.213-0.518-4.239l0.174-0.582l-0.592-0.137
		c-0.048-0.011-1.188-0.261-2.191,0.607c-1.099,0.952-1.556,2.814-1.361,5.536l-10.372,12.971c-2.061,0.324-3.643,2.111-3.643,4.262
		c0,1.642,0.923,3.072,2.276,3.801l11.199,18.33l-0.007,0.025l0.07,0.176c0.05,0.125,4.392,10.98,5.556,20.85l-21.362,8.805
		c-0.587-1.176-1.804-1.988-3.206-1.988c-1.974,0-3.581,1.607-3.581,3.582s1.607,3.58,3.581,3.58c1.975,0,3.581-1.605,3.581-3.58
		c0-0.17-0.013-0.336-0.036-0.5l21.148-8.717c0.097,1.055,0.153,2.094,0.16,3.1l0.003,0.566v0.898l-18.806,7.795v0.268l0.005,0.012
		l-0.005,0.229l0,0l-0.076,3.764l-10.714,4.035c-0.566-1.23-1.811-2.086-3.252-2.086c-1.974,0-3.581,1.607-3.581,3.58
		c0,1.975,1.606,3.582,3.581,3.582s3.581-1.607,3.581-3.582c0-0.131-0.008-0.262-0.022-0.391l11.382-4.289l0.149-0.064l0.087-4.293
		l17.696-7.336v4.236l-11.033,4.896h-0.022v0.01v0.238v0.35v5.41l-10.423,4.365c-0.644-0.617-1.517-0.998-2.478-0.998
		c-1.975,0-3.581,1.605-3.581,3.58s1.606,3.58,3.581,3.58c1.974,0,3.581-1.605,3.581-3.58c0-0.592-0.145-1.148-0.399-1.641
		l9.719-4.07v5.645c-1.849,0.141-3.312,1.686-3.312,3.57c0,1.975,1.606,3.58,3.581,3.58c1.975,0,3.582-1.605,3.582-3.58
		c0-1.674-1.156-3.084-2.711-3.473V296.4l11.006-4.883h0.009l0.041-0.018v-0.004v-0.166v-0.25v-6.684h2.622v13.852l-8.089,3.162
		l-0.375,0.141v0.031v13.479c-0.787,0.656-1.289,1.645-1.289,2.746c0,1.057,0.46,2.008,1.19,2.664l-0.018,0.004l3.922,19.994
		c-0.803,0.783-1.303,1.877-1.303,3.084c0,1.918,1.257,3.545,2.99,4.105l-0.056,0.008l4.003,26.564l-0.554,8.355
		c-0.885,2.531-1.791,7.832,1.654,15.523l0.485,1.082l0.543-1.053c0.248-0.482,5.907-11.627,1.899-16.008l4.273-34.121
		c1.168-0.773,1.941-2.098,1.941-3.602c0-1.186-0.481-2.26-1.258-3.041l4.867-26.451c-0.006-0.016,0.012-1.512,0.012-1.512
		l-0.184-11.307v-0.117l-1.189-0.516l-7.592-3.338v-13.73h0.283h3.098l0.09,6.766l0,0v0.031l0,0v0.146l0.229,0.113l10.83,4.807
		v12.232c-1.555,0.391-2.711,1.801-2.711,3.475c0,1.975,1.606,3.58,3.581,3.58s3.581-1.605,3.581-3.58
		c0-1.883-1.463-3.432-3.312-3.568v-5.646l9.72,4.07c-0.255,0.492-0.4,1.049-0.4,1.641c0,1.975,1.607,3.58,3.582,3.58
		s3.58-1.605,3.58-3.58s-1.605-3.58-3.58-3.58c-0.961,0-1.834,0.381-2.479,0.998l-10.423-4.365v-5.623v-0.137v-0.238v-0.002
		l-0.021-0.008h-0.002l-0.437-0.195l-0.013-0.004l0,0l-10.594-4.701l-0.057-4.26l17.763,7.361l0.087,4.295l0.229,0.096l11.303,4.258
		c-0.014,0.129-0.021,0.26-0.021,0.391c0,1.975,1.605,3.582,3.581,3.582c1.974,0,3.579-1.607,3.579-3.582
		S437.973,299.168,435.999,299.168z M428.006,287.363c1.346,0,2.441,1.096,2.441,2.441s-1.096,2.441-2.441,2.441
		s-2.439-1.096-2.439-2.441S426.66,287.363,428.006,287.363z M363.996,292.389c-1.346,0-2.441-1.096-2.441-2.441
		s1.095-2.441,2.441-2.441c1.345,0,2.44,1.096,2.44,2.441S365.341,292.389,363.996,292.389z M356.003,305.332
		c-1.346,0-2.44-1.096-2.44-2.441s1.095-2.439,2.44-2.439c1.346,0,2.441,1.094,2.441,2.439S357.35,305.332,356.003,305.332z
		 M364.92,311.047c-1.346,0-2.441-1.096-2.441-2.441s1.095-2.441,2.441-2.441c1.346,0,2.441,1.096,2.441,2.441
		S366.267,311.047,364.92,311.047z M380.531,312.109c0,1.346-1.094,2.439-2.441,2.439c-1.345,0-2.44-1.094-2.44-2.439
		s1.095-2.441,2.44-2.441C379.437,309.668,380.531,310.764,380.531,312.109z M421.34,236.225c0,1.75-1.425,3.173-3.176,3.173
		c-1.75,0-3.172-1.423-3.172-3.173s1.422-3.175,3.172-3.175C419.915,233.05,421.34,234.475,421.34,236.225z M405.365,221.125
		l-0.096-0.308c-2.021,0.621-3.561,0.614-4.45-0.019c-0.358-0.256-0.567-0.58-0.688-0.864c2.154,0.196,3.736-0.267,4.708-1.381
		c1.234-1.413,1.104-3.462,0.917-4.558c0.192,0.051,0.41,0.15,0.618,0.336c0.568,0.506,1.192,1.746,0.937,4.793l-0.019,0.225
		l9.982,12.653c-0.918,0.193-1.729,0.681-2.331,1.356L405.365,221.125z M415.67,239.739c0.705,0.501,1.566,0.798,2.494,0.798
		c0.205,0,0.406-0.016,0.603-0.043l-10.222,16.496l-0.489-1.859l-0.708-2.762L415.67,239.739z M388.524,236.961
		c0-4.269,3.472-7.74,7.74-7.74s7.741,3.472,7.741,7.74c0,4.268-3.473,7.74-7.741,7.74S388.524,241.229,388.524,236.961z
		 M384.656,219.495l-0.019-0.228c-0.256-3.046,0.368-4.287,0.937-4.793c0.209-0.186,0.427-0.284,0.619-0.337
		c-0.187,1.096-0.317,3.146,0.917,4.558c0.973,1.114,2.554,1.578,4.708,1.382c-0.121,0.285-0.329,0.608-0.688,0.864
		c-0.89,0.633-2.429,0.64-4.451,0.018l-0.094,0.309l-9.579,12.235c-0.628-0.706-1.483-1.204-2.449-1.38L384.656,219.495z
		 M370.61,236.367c0-1.75,1.423-3.174,3.173-3.174s3.174,1.424,3.174,3.174s-1.424,3.174-3.174,3.174S370.61,238.117,370.61,236.367
		z M373.383,240.66c0.132,0.014,0.266,0.02,0.4,0.02c0.93,0,1.791-0.297,2.495-0.799l8.23,12.496l-0.133,0.678l-1.03,3.916
		L373.383,240.66z M389.979,283.256c-0.243-10.18-5.193-23.141-5.844-24.807l1.229-4.668c3.36-0.883,5.682-3.309,7.091-5.311v13.217
		v0.996v0.143h4.062v13.82h-3.499v-4.629c1.503-0.426,2.607-1.809,2.607-3.445c0-1.975-1.607-3.58-3.581-3.58
		c-1.975,0-3.581,1.605-3.581,3.58c0,1.92,1.517,3.49,3.415,3.576v5.59h0.105v0.049h4.533v5.469h-3.427H389.979z M397.372,314.121
		c-1.523,0.412-2.648,1.805-2.648,3.457c0,1.566,1.012,2.902,2.417,3.387l-0.358,20.068v0.064c-0.753,0.627-1.29,1.506-1.479,2.506
		c0-0.016,0.002-0.033,0.002-0.051c0-1.287-0.568-2.443-1.465-3.234l0.071-17.955l0,0l0.005-0.697l-0.139-23.094v-14.176h3.594
		V314.121z M398.304,315.139c1.347,0,2.441,1.094,2.441,2.439s-1.095,2.441-2.441,2.441c-1.345,0-2.44-1.096-2.44-2.441
		S396.958,315.139,398.304,315.139z M392.044,271.014c-1.346,0-2.441-1.096-2.441-2.441s1.095-2.441,2.441-2.441
		c1.345,0,2.44,1.096,2.44,2.441S393.39,271.014,392.044,271.014z M384.026,317.807c0-1.346,1.095-2.439,2.44-2.439
		s2.441,1.094,2.441,2.439c0,1.348-1.096,2.441-2.441,2.441S384.026,319.154,384.026,317.807z M385.365,321.213
		c0.348,0.113,0.718,0.176,1.102,0.176c1.975,0,3.581-1.605,3.581-3.582c0-1.973-1.606-3.58-3.581-3.58
		c-0.403,0-0.791,0.068-1.152,0.191v-12.082l7.329-2.865l0.13,21.768l-0.001,0.859l-0.069,17.498
		c-0.525-0.229-1.104-0.355-1.712-0.355c-0.719,0-1.397,0.178-1.994,0.49L385.365,321.213z M387.817,343.553
		c0-1.75,1.424-3.174,3.174-3.174c1.75,0,3.173,1.424,3.173,3.174s-1.423,3.176-3.173,3.176
		C389.241,346.729,387.817,345.303,387.817,343.553z M390.794,347.861c0.065,0.004,0.131,0.006,0.197,0.006
		c2.104,0,3.859-1.514,4.238-3.51c0,0.018-0.002,0.033-0.002,0.051c0,0.523,0.094,1.027,0.266,1.492l-1.526,23.018L390.794,347.861z
		 M396.411,382.77l0.298,0.037c1.847,1.869,1.275,5.672,0.455,8.564c-0.586,2.066-1.381,3.969-1.901,5.119
		c-2.743-6.803-1.886-11.42-1.093-13.625c0.004-0.012,0.008-0.023,0.013-0.037h0.003l0-0.012c0.045-0.133,0.103-0.338,0.035-0.527
		l0.517-7.785l0.021-0.322l0,0l1.771-26.688c0.777,0.758,1.841,1.229,3.011,1.229c0.399,0,0.786-0.055,1.153-0.158L396.411,382.77z
		 M402.715,344.408c0,1.75-1.424,3.174-3.174,3.174s-3.173-1.424-3.173-3.174s1.423-3.174,3.173-3.174
		S402.715,342.658,402.715,344.408z M406.162,302.736l0.194,11.906l-4.778,25.965c-0.607-0.328-1.301-0.514-2.037-0.514
		c-0.568,0-1.11,0.113-1.606,0.313l0.344-19.246c0.009,0,0.017,0,0.025,0c1.975,0,3.581-1.607,3.581-3.582
		c0-1.904-1.494-3.467-3.373-3.574v-14.633L406.162,302.736z M401.906,283.256h-3.111h-1.138v-11.711h4.011v-0.09h0.021l0.135-10.74
		c1.73-0.252,3.063-1.744,3.063-3.543c0-1.975-1.606-3.58-3.581-3.58s-3.58,1.605-3.58,3.58c0,1.762,1.279,3.23,2.959,3.525
		l-0.122,9.707h-2.906v-8.717h-0.285h-0.855h-2.922v-15.063c0.272-0.506,0.441-0.883,0.514-1.051
		c0.69,0.174,1.413,0.268,2.156,0.268c0.535,0,1.058-0.051,1.568-0.143c0.525,1.174,3.245,6.65,8.689,8.082l1.229,4.668
		C407.098,260.115,402.148,273.076,401.906,283.256z M401.307,259.613c-1.346,0-2.44-1.096-2.44-2.441s1.095-2.441,2.44-2.441
		s2.441,1.096,2.441,2.441S402.652,259.613,401.307,259.613z M427.082,306.023c1.346,0,2.44,1.094,2.44,2.439
		s-1.095,2.441-2.44,2.441s-2.441-1.096-2.441-2.441S425.736,306.023,427.082,306.023z M413.911,309.525
		c1.346,0,2.44,1.096,2.44,2.441s-1.095,2.441-2.44,2.441c-1.347,0-2.44-1.096-2.44-2.441S412.564,309.525,413.911,309.525z
		 M435.999,305.189c-1.347,0-2.44-1.096-2.44-2.441s1.094-2.439,2.44-2.439c1.345,0,2.44,1.094,2.44,2.439
		S437.344,305.189,435.999,305.189z"/>
</g>
</svg>
