<?xml version="1.0" encoding="utf-8"?>
<!-- Generator: Adobe Illustrator 16.0.0, SVG Export Plug-In . SVG Version: 6.00 Build 0)  -->
<!DOCTYPE svg PUBLIC "-//W3C//DTD SVG 1.1//EN" "http://www.w3.org/Graphics/SVG/1.1/DTD/svg11.dtd">
<svg version="1.1" id="Layer_1" xmlns="http://www.w3.org/2000/svg" xmlns:xlink="http://www.w3.org/1999/xlink" x="0px" y="0px"
	 width="792px" height="612px" viewBox="0 0 792 612" enable-background="new 0 0 792 612" xml:space="preserve">
<g>
	<path d="M316.285,243.03l1.499-0.745l-0.515-0.958l1.922-2.069l1.098,0.5l0.613-1.625l-1.266-0.438l-0.224-2.363l1.172-0.847
		l-0.848-1.247l-0.971,0.499l-1.889-1.799l0.447-1.139l-1.648-0.622l-0.536,1.176l-2.42,0.13l-0.726-1.167l-1.418,0.764l0.599,1.143
		l-1.7,1.662l-1.32-0.377l-0.448,1.687l1.318,0.356l-0.138,2.789l-1.026,0.44l0.598,1.429l1.136-0.438l2.033,1.822l-0.343,1.079
		l1.544,0.397l0.309-0.933l2.667-0.048L316.285,243.03z M309.666,236.748c0-2.506,2.032-4.538,4.539-4.538s4.538,2.032,4.538,4.538
		c0,2.507-2.032,4.538-4.538,4.538S309.666,239.255,309.666,236.748z"/>
	<path d="M353.884,298.965c-1.441,0-2.687,0.856-3.253,2.087l-10.713-4.038l-0.081-3.992l0.001-0.003v-0.277l-18.912-7.839
		l-0.009-0.709h0.002l0.003-0.566c0.007-1.091,0.073-2.218,0.186-3.364l21.251,8.76c-0.031,0.188-0.048,0.382-0.048,0.579
		c0,1.975,1.607,3.581,3.58,3.581c1.975,0,3.582-1.606,3.582-3.581s-1.607-3.582-3.582-3.582c-1.374,0-2.569,0.78-3.169,1.919
		l-21.483-8.855c1.209-9.796,5.475-20.464,5.524-20.587l0.071-0.175l-0.004-0.015l11.569-18.67c1.182-0.77,1.966-2.103,1.966-3.615
		c0-2.206-1.664-4.028-3.801-4.283l-10.213-12.946c0.196-2.724-0.261-4.586-1.361-5.539c-1.002-0.868-2.143-0.618-2.191-0.606
		l-0.592,0.136l0.174,0.583c0.008,0.027,0.797,2.733-0.515,4.236c-0.819,0.938-2.332,1.241-4.498,0.902l-0.671-0.105l0.013,0.679
		c0.001,0.062,0.044,1.515,1.313,2.434c1.055,0.764,2.593,0.909,4.581,0.437l9.557,12.208c-0.271,0.566-0.425,1.199-0.425,1.867
		c0,1.033,0.365,1.982,0.974,2.726l-8.868,13.457c-4.107-1.534-6.387-5.722-6.995-6.986c3.582-1.145,6.183-4.503,6.183-8.46
		c0-4.897-3.984-8.881-8.881-8.881s-8.88,3.984-8.88,8.881c0,3.75,2.338,6.963,5.633,8.263c-0.428,0.94-2.729,5.574-7.116,7.193
		l-8.777-13.324c0.608-0.744,0.973-1.693,0.973-2.726c0-0.668-0.153-1.301-0.425-1.867l9.557-12.208
		c1.988,0.473,3.526,0.327,4.581-0.437c1.27-0.918,1.312-2.371,1.313-2.433l0.014-0.678l-0.671,0.104
		c-2.164,0.339-3.676,0.037-4.496-0.898c-1.308-1.495-0.525-4.212-0.518-4.239l0.174-0.582l-0.592-0.137
		c-0.048-0.01-1.188-0.261-2.191,0.607c-1.099,0.952-1.556,2.814-1.361,5.537l-10.372,12.97c-2.061,0.324-3.643,2.111-3.643,4.261
		c0,1.642,0.923,3.072,2.276,3.801l11.199,18.331l-0.007,0.026l0.07,0.175c0.05,0.125,4.392,10.979,5.556,20.849l-21.362,8.805
		c-0.587-1.176-1.804-1.988-3.206-1.988c-1.974,0-3.581,1.607-3.581,3.581c0,1.975,1.607,3.581,3.581,3.581
		c1.975,0,3.581-1.606,3.581-3.581c0-0.169-0.013-0.336-0.036-0.5l21.148-8.718c0.097,1.056,0.153,2.094,0.16,3.101l0.003,0.566
		v0.898l-18.806,7.794v0.268l0.005,0.012l-0.005,0.229v0l-0.076,3.763l-10.714,4.036c-0.566-1.23-1.811-2.087-3.252-2.087
		c-1.974,0-3.581,1.607-3.581,3.581c0,1.975,1.606,3.581,3.581,3.581s3.581-1.606,3.581-3.581c0-0.132-0.008-0.263-0.022-0.391
		l11.382-4.289l0.149-0.064l0.087-4.294l17.696-7.335v4.236l-11.033,4.896h-0.022v0.01v0.239v0.349v5.41l-10.423,4.367
		c-0.644-0.618-1.517-0.999-2.478-0.999c-1.975,0-3.581,1.606-3.581,3.58c0,1.975,1.606,3.581,3.581,3.581
		c1.974,0,3.581-1.606,3.581-3.581c0-0.591-0.145-1.147-0.399-1.64l9.719-4.072v5.646c-1.849,0.14-3.312,1.686-3.312,3.57
		c0,1.974,1.606,3.58,3.581,3.58c1.975,0,3.582-1.606,3.582-3.58c0-1.675-1.156-3.084-2.711-3.474v-12.236l11.006-4.883h0.009
		l0.041-0.018v-0.004v-0.165v-0.25v-6.684h2.622v13.852l-8.089,3.163l-0.375,0.139v0.031v13.479
		c-0.787,0.656-1.289,1.645-1.289,2.747c0,1.057,0.46,2.008,1.19,2.664l-0.018,0.004l3.922,19.993
		c-0.803,0.784-1.303,1.877-1.303,3.085c0,1.917,1.257,3.545,2.99,4.105l-0.056,0.008l4.003,26.563l-0.554,8.356
		c-0.885,2.531-1.791,7.831,1.654,15.523l0.485,1.082l0.543-1.054c0.248-0.482,5.907-11.627,1.898-16.007l4.273-34.122
		c1.168-0.772,1.941-2.098,1.941-3.602c0-1.186-0.481-2.26-1.257-3.041l4.868-26.45c-0.007-0.017,0.011-1.513,0.011-1.513
		l-0.184-11.306v-0.118l-1.189-0.516l-7.592-3.338v-13.729h0.283h3.097l0.09,6.765v0.001l0,0.031l0,0v0.146l0.229,0.112l10.83,4.806
		v12.234c-1.555,0.391-2.71,1.8-2.71,3.475c0,1.974,1.606,3.58,3.581,3.58s3.581-1.606,3.581-3.58c0-1.884-1.463-3.433-3.312-3.569
		v-5.647l9.719,4.071c-0.254,0.493-0.399,1.049-0.399,1.64c0,1.976,1.606,3.581,3.581,3.581s3.581-1.605,3.581-3.581
		c0-1.974-1.606-3.58-3.581-3.58c-0.961,0-1.834,0.38-2.478,0.999l-10.423-4.367v-5.623v-0.136v-0.239v-0.001l-0.021-0.008h-0.001
		l-0.437-0.195l-0.012-0.004l0,0L321,290.404l-0.057-4.26l17.763,7.362l0.087,4.293l0.229,0.096l11.302,4.259
		c-0.014,0.128-0.021,0.259-0.021,0.391c0,1.975,1.606,3.582,3.581,3.582c1.974,0,3.58-1.606,3.58-3.582
		C357.463,300.571,355.858,298.965,353.884,298.965z M345.891,287.161c1.346,0,2.441,1.095,2.441,2.441
		c0,1.346-1.095,2.441-2.441,2.441c-1.345,0-2.44-1.095-2.44-2.441C343.451,288.256,344.545,287.161,345.891,287.161z
		 M281.88,292.186c-1.346,0-2.441-1.096-2.441-2.441s1.095-2.44,2.441-2.44c1.345,0,2.44,1.095,2.44,2.44
		S283.226,292.186,281.88,292.186z M273.888,305.129c-1.346,0-2.44-1.095-2.44-2.441s1.095-2.441,2.44-2.441
		c1.346,0,2.441,1.095,2.441,2.441S275.234,305.129,273.888,305.129z M282.805,310.844c-1.346,0-2.441-1.095-2.441-2.441
		c0-1.346,1.095-2.44,2.441-2.44c1.346,0,2.441,1.095,2.441,2.44C285.247,309.749,284.151,310.844,282.805,310.844z
		 M298.416,311.907c0,1.345-1.094,2.439-2.441,2.439c-1.345,0-2.44-1.095-2.44-2.439c0-1.347,1.095-2.441,2.44-2.441
		C297.322,309.466,298.416,310.561,298.416,311.907z M339.224,236.021c0,1.75-1.424,3.173-3.175,3.173
		c-1.75,0-3.173-1.423-3.173-3.173c0-1.75,1.423-3.175,3.173-3.175C337.8,232.847,339.224,234.271,339.224,236.021z M323.25,220.921
		l-0.095-0.307c-2.021,0.621-3.561,0.615-4.451-0.019c-0.359-0.255-0.567-0.579-0.688-0.864c2.155,0.196,3.736-0.267,4.708-1.381
		c1.234-1.413,1.104-3.462,0.917-4.558c0.192,0.051,0.41,0.151,0.618,0.336c0.568,0.505,1.192,1.747,0.937,4.793l-0.019,0.224
		l9.982,12.653c-0.918,0.193-1.729,0.68-2.331,1.357L323.25,220.921z M333.555,239.536c0.705,0.502,1.566,0.798,2.495,0.798
		c0.205,0,0.406-0.015,0.602-0.042l-10.222,16.496l-0.489-1.859l-0.708-2.763L333.555,239.536z M306.409,236.758
		c0-4.269,3.472-7.741,7.74-7.741s7.741,3.472,7.741,7.741c0,4.268-3.473,7.74-7.741,7.74S306.409,241.026,306.409,236.758z
		 M302.541,219.292l-0.019-0.227c-0.256-3.046,0.368-4.288,0.937-4.794c0.209-0.185,0.427-0.284,0.619-0.336
		c-0.187,1.096-0.317,3.145,0.917,4.558c0.973,1.114,2.554,1.577,4.708,1.381c-0.121,0.285-0.329,0.609-0.688,0.864
		c-0.89,0.634-2.429,0.64-4.451,0.019l-0.094,0.309l-9.579,12.235c-0.628-0.706-1.483-1.204-2.449-1.379L302.541,219.292z
		 M288.495,236.164c0-1.75,1.423-3.173,3.173-3.173s3.174,1.423,3.174,3.173s-1.424,3.174-3.174,3.174
		S288.495,237.914,288.495,236.164z M291.268,240.458c0.132,0.012,0.266,0.019,0.4,0.019c0.93,0,1.791-0.296,2.495-0.798
		l8.23,12.495l-0.133,0.679l-1.03,3.915L291.268,240.458z M307.864,283.054c-0.243-10.181-5.193-23.142-5.844-24.807l1.229-4.668
		c3.36-0.884,5.682-3.309,7.091-5.312v13.217v0.997v0.143h4.062v13.82h-3.499v-4.629c1.503-0.426,2.607-1.809,2.607-3.445
		c0-1.975-1.607-3.581-3.581-3.581c-1.975,0-3.581,1.606-3.581,3.581c0,1.919,1.517,3.489,3.415,3.576v5.59h0.105v0.048h4.533v5.47
		h-3.427H307.864z M315.257,313.919c-1.523,0.411-2.648,1.805-2.648,3.457c0,1.566,1.012,2.901,2.417,3.386l-0.358,20.069v0.063
		c-0.753,0.628-1.29,1.506-1.479,2.507c0-0.017,0.002-0.033,0.002-0.051c0-1.287-0.568-2.443-1.465-3.234l0.071-17.956l0,0
		l0.005-0.697l-0.139-23.094v-14.175h3.594V313.919z M316.188,314.936c1.347,0,2.441,1.094,2.441,2.44
		c0,1.345-1.095,2.44-2.441,2.44c-1.345,0-2.44-1.096-2.44-2.44C313.748,316.029,314.843,314.936,316.188,314.936z M309.929,270.81
		c-1.346,0-2.441-1.095-2.441-2.44c0-1.346,1.095-2.441,2.441-2.441c1.345,0,2.44,1.095,2.44,2.441
		C312.37,269.715,311.274,270.81,309.929,270.81z M301.911,317.604c0-1.346,1.095-2.44,2.44-2.44s2.441,1.095,2.441,2.44
		c0,1.347-1.096,2.441-2.441,2.441S301.911,318.951,301.911,317.604z M303.25,321.011c0.348,0.113,0.718,0.175,1.102,0.175
		c1.975,0,3.581-1.605,3.581-3.581c0-1.974-1.606-3.581-3.581-3.581c-0.403,0-0.791,0.068-1.152,0.191v-12.082l7.329-2.866
		l0.13,21.769l-0.001,0.859l-0.069,17.497c-0.525-0.229-1.104-0.355-1.712-0.355c-0.719,0-1.397,0.178-1.994,0.49L303.25,321.011z
		 M305.702,343.351c0-1.751,1.424-3.174,3.174-3.174c1.75,0,3.173,1.423,3.173,3.174c0,1.75-1.423,3.175-3.173,3.175
		C307.126,346.525,305.702,345.101,305.702,343.351z M308.679,347.659c0.065,0.003,0.131,0.006,0.197,0.006
		c2.104,0,3.859-1.515,4.238-3.51c0,0.017-0.002,0.032-0.002,0.05c0,0.524,0.094,1.027,0.266,1.493l-1.526,23.017L308.679,347.659z
		 M314.296,382.567l0.298,0.037c1.847,1.869,1.275,5.672,0.455,8.564c-0.586,2.066-1.381,3.969-1.901,5.118
		c-2.743-6.802-1.886-11.42-1.093-13.625c0.004-0.011,0.008-0.023,0.013-0.037h0.003l0-0.012c0.045-0.132,0.103-0.337,0.035-0.527
		l0.517-7.784l0.021-0.322l0,0l1.771-26.688c0.777,0.759,1.84,1.229,3.011,1.229c0.399,0,0.786-0.055,1.153-0.158L314.296,382.567z
		 M320.6,344.205c0,1.75-1.424,3.174-3.174,3.174c-1.75,0-3.174-1.424-3.174-3.174s1.423-3.173,3.174-3.173
		C319.176,341.032,320.6,342.455,320.6,344.205z M324.047,302.533l0.194,11.906l-4.778,25.965c-0.607-0.327-1.3-0.513-2.037-0.513
		c-0.569,0-1.111,0.112-1.607,0.312l0.344-19.246c0.008,0,0.017,0,0.025,0c1.975,0,3.581-1.607,3.581-3.581
		c0-1.905-1.495-3.467-3.373-3.575v-14.633L324.047,302.533z M319.791,283.054h-3.111h-1.138v-11.712h4.011v-0.09l0.021,0
		l0.135-10.74c1.729-0.252,3.063-1.745,3.063-3.542c0-1.975-1.607-3.581-3.582-3.581c-1.974,0-3.58,1.606-3.58,3.581
		c0,1.762,1.28,3.23,2.959,3.525l-0.122,9.707h-2.906v-8.718h-0.285h-0.855h-2.922v-15.062c0.272-0.505,0.441-0.882,0.514-1.05
		c0.69,0.173,1.413,0.266,2.156,0.266c0.535,0,1.059-0.05,1.567-0.141c0.526,1.172,3.246,6.649,8.689,8.082l1.229,4.668
		C324.982,259.912,320.033,272.873,319.791,283.054z M319.191,259.41c-1.345,0-2.44-1.095-2.44-2.44c0-1.347,1.095-2.441,2.44-2.441
		c1.346,0,2.441,1.095,2.441,2.441C321.632,258.315,320.537,259.41,319.191,259.41z M344.966,305.82c1.346,0,2.441,1.095,2.441,2.44
		c0,1.347-1.095,2.441-2.441,2.441s-2.44-1.095-2.44-2.441C342.526,306.915,343.621,305.82,344.966,305.82z M331.796,309.323
		c1.346,0,2.44,1.095,2.44,2.441c0,1.345-1.095,2.44-2.44,2.44c-1.346,0-2.44-1.096-2.44-2.44
		C329.355,310.418,330.45,309.323,331.796,309.323z M353.884,304.987c-1.347,0-2.441-1.095-2.441-2.441
		c0-1.345,1.094-2.44,2.441-2.44c1.345,0,2.44,1.095,2.44,2.44C356.324,303.892,355.229,304.987,353.884,304.987z"/>
</g>
<g>
	<g>
		<path d="M381.781,276.625c1.249,1.422,1.874,3.129,1.874,5.121c0,1.93-0.491,3.574-1.471,4.934
			c-0.98,1.359-2.277,2.371-3.89,3.035s-3.367,0.996-5.265,0.996h-8.774v-33.676h7.447c6.83,0,10.245,2.846,10.245,8.537
			c0,1.867-0.435,3.504-1.304,4.91c-0.871,1.406-2.127,2.441-3.771,3.105C378.896,274.189,380.532,275.201,381.781,276.625z
			 M366.58,272.783h6.213c2.276,0,3.976-0.617,5.098-1.85c1.123-1.234,1.684-2.877,1.684-4.934c0-2.309-0.68-4.008-2.039-5.1
			c-1.36-1.09-3.272-1.635-5.739-1.635h-5.217V272.783z M378.911,286.822c1.582-1.17,2.372-2.83,2.372-4.98
			c0-2.277-0.847-3.984-2.538-5.123s-3.675-1.707-5.952-1.707h-6.213v13.564h6.355C375.338,288.576,377.331,287.992,378.911,286.822
			z"/>
		<path d="M407.985,272.166v18.545h-2.229v-3.938c-0.729,1.203-1.834,2.223-3.32,3.061s-3.1,1.256-4.838,1.256
			c-1.771,0-3.375-0.402-4.814-1.209c-1.438-0.807-2.577-1.945-3.414-3.414c-0.838-1.471-1.258-3.154-1.258-5.053
			c0-2.023,0.436-3.77,1.305-5.24s2.07-2.602,3.605-3.391c1.533-0.791,3.264-1.186,5.193-1.186c1.518,0,2.971,0.426,4.363,1.279
			c1.391,0.854,2.449,1.961,3.178,3.32l0.237-4.031H407.985z M403.386,287.248c1.453-1.295,2.244-2.955,2.371-4.98v-2.654
			c-0.379-1.74-1.297-3.193-2.751-4.365c-1.455-1.168-3.114-1.754-4.979-1.754c-1.424,0-2.721,0.324-3.89,0.973
			c-1.171,0.648-2.095,1.564-2.774,2.75c-0.681,1.186-1.02,2.555-1.02,4.104c0,1.422,0.348,2.734,1.043,3.936
			c0.695,1.203,1.637,2.158,2.822,2.869c1.186,0.713,2.474,1.068,3.865,1.068C400.16,289.193,401.931,288.545,403.386,287.248z"/>
		<path d="M417.472,254.664v36.047h-2.229v-36.047H417.472z"/>
		<path d="M426.957,254.664v36.047h-2.229v-36.047H426.957z"/>
		<path d="M447.73,287.105l1.138,1.613c-0.917,0.729-1.952,1.305-3.105,1.73c-1.155,0.428-2.316,0.641-3.486,0.641
			c-1.897,0-3.598-0.426-5.099-1.279c-1.503-0.855-2.673-2.018-3.511-3.486c-0.838-1.471-1.256-3.123-1.256-4.957
			c0-1.77,0.442-3.406,1.328-4.908c0.885-1.502,2.086-2.695,3.604-3.582c1.519-0.885,3.179-1.328,4.98-1.328
			c2.15,0,3.984,0.633,5.502,1.898c1.518,1.264,2.625,2.973,3.32,5.121l-15.842,6.119c0.601,1.328,1.525,2.402,2.775,3.225
			c1.248,0.822,2.663,1.234,4.244,1.234C444.315,289.146,446.118,288.467,447.73,287.105z M438.339,274.49
			c-1.17,0.695-2.086,1.637-2.75,2.822s-0.996,2.506-0.996,3.959c0,0.664,0.063,1.25,0.189,1.756l13.66-5.359
			c-0.602-1.264-1.439-2.285-2.514-3.059c-1.076-0.775-2.324-1.162-3.747-1.162C440.79,273.447,439.509,273.795,438.339,274.49z"/>
		<path d="M460.252,264.008v8.395h5.739v1.803h-5.739v16.506h-2.276v-16.506h-3.938v-1.803h3.938v-8.395H460.252z"/>
	</g>
	<g>
		<path d="M396.461,305.738v34.434h-2.276v-27.65l-13.85,19.494h-0.095l-13.755-19.258v27.414h-2.276v-34.434h0.047l16.032,22.814
			l16.125-22.814H396.461z"/>
		<path d="M418.373,336.568l1.138,1.611c-0.917,0.729-1.952,1.305-3.105,1.732c-1.155,0.426-2.317,0.641-3.486,0.641
			c-1.897,0-3.598-0.428-5.1-1.281s-2.672-2.016-3.51-3.486s-1.256-3.121-1.256-4.957c0-1.77,0.441-3.406,1.328-4.908
			c0.885-1.502,2.086-2.695,3.604-3.58c1.519-0.885,3.178-1.328,4.98-1.328c2.15,0,3.984,0.633,5.502,1.896
			c1.518,1.266,2.625,2.973,3.32,5.123l-15.842,6.117c0.601,1.328,1.525,2.404,2.775,3.227c1.248,0.822,2.663,1.232,4.244,1.232
			C414.958,338.607,416.761,337.928,418.373,336.568z M408.981,323.951c-1.17,0.697-2.086,1.637-2.75,2.822
			s-0.996,2.506-0.996,3.961c0,0.664,0.063,1.25,0.189,1.754l13.66-5.359c-0.602-1.264-1.439-2.283-2.514-3.059
			c-1.076-0.775-2.324-1.162-3.748-1.162C411.433,322.908,410.151,323.256,408.981,323.951z M413.062,317.738h-1.613l4.127-6.309
			h2.514L413.062,317.738z"/>
		<path d="M438.175,339.982c-1.091,0.381-2.205,0.57-3.344,0.57c-1.865,0-3.55-0.42-5.051-1.258
			c-1.502-0.838-2.68-1.992-3.533-3.463c-0.854-1.469-1.281-3.121-1.281-4.955s0.434-3.486,1.305-4.957
			c0.869-1.471,2.047-2.625,3.533-3.463c1.486-0.836,3.099-1.256,4.838-1.256c2.561,0,4.727,0.727,6.498,2.182l-1.186,1.518
			c-1.582-1.232-3.305-1.85-5.17-1.85c-1.393,0-2.664,0.348-3.818,1.043s-2.071,1.645-2.751,2.846
			c-0.681,1.203-1.021,2.514-1.021,3.938c0,1.422,0.34,2.727,1.021,3.912c0.68,1.186,1.612,2.127,2.798,2.822
			s2.506,1.043,3.961,1.043c1.77,0,3.398-0.553,4.885-1.66l1.233,1.377C440.238,339.066,439.266,339.604,438.175,339.982z"/>
		<path d="M464.19,321.627v18.545h-2.229v-3.936c-0.728,1.201-1.835,2.221-3.32,3.059c-1.486,0.838-3.099,1.258-4.838,1.258
			c-1.771,0-3.376-0.404-4.813-1.211c-1.439-0.805-2.578-1.943-3.416-3.414s-1.256-3.154-1.256-5.051
			c0-2.023,0.434-3.771,1.304-5.242c0.87-1.469,2.071-2.6,3.604-3.391c1.533-0.789,3.265-1.186,5.193-1.186
			c1.518,0,2.973,0.428,4.364,1.281s2.45,1.961,3.178,3.32l0.237-4.033H464.19z M459.589,336.711
			c1.455-1.297,2.245-2.957,2.372-4.98v-2.656c-0.38-1.738-1.297-3.193-2.751-4.363c-1.455-1.17-3.115-1.756-4.98-1.756
			c-1.423,0-2.72,0.326-3.889,0.973c-1.17,0.648-2.096,1.566-2.775,2.752s-1.02,2.553-1.02,4.102c0,1.424,0.348,2.736,1.044,3.938
			c0.694,1.201,1.636,2.158,2.821,2.869c1.187,0.711,2.475,1.066,3.866,1.066C456.364,338.654,458.135,338.008,459.589,336.711z"/>
		<path d="M485.58,322.646c1.075,1.029,1.644,2.365,1.708,4.008v13.518h-2.277v-12.9c-0.063-1.232-0.459-2.236-1.186-3.012
			c-0.728-0.773-1.771-1.178-3.131-1.209c-1.265,0-2.426,0.301-3.485,0.9c-1.06,0.602-1.913,1.447-2.562,2.537
			c-0.648,1.092-0.973,2.334-0.973,3.725v9.959h-2.229v-18.545h1.944l0.19,4.127c0.6-1.422,1.619-2.553,3.059-3.391
			c1.438-0.838,3.027-1.258,4.767-1.258C483.114,321.105,484.505,321.621,485.58,322.646z"/>
		<path d="M496.773,321.627v18.545h-2.229v-18.545H496.773z"/>
		<path d="M522.243,321.486v27.604h-2.23v-12.854c-0.79,1.297-1.943,2.34-3.462,3.131c-1.518,0.789-3.178,1.186-4.979,1.186
			c-1.708,0-3.273-0.42-4.695-1.258c-1.424-0.838-2.555-1.992-3.392-3.463c-0.839-1.469-1.257-3.121-1.257-4.955
			c0-1.865,0.434-3.541,1.305-5.027c0.869-1.486,2.063-2.656,3.58-3.51s3.193-1.281,5.027-1.281c1.549,0,3.036,0.387,4.459,1.162
			s2.545,1.811,3.367,3.107v-3.842H522.243z M519.966,330.164c-0.095-1.326-0.49-2.537-1.186-3.627
			c-0.695-1.092-1.621-1.953-2.775-2.586c-1.154-0.631-2.426-0.947-3.817-0.947s-2.68,0.348-3.866,1.043
			c-1.186,0.695-2.127,1.645-2.821,2.846c-0.696,1.201-1.044,2.529-1.044,3.984c0,1.422,0.348,2.734,1.044,3.936
			c0.694,1.203,1.636,2.15,2.821,2.846c1.187,0.697,2.475,1.045,3.866,1.045c1.358,0,2.608-0.309,3.747-0.926s2.07-1.447,2.799-2.49
			c0.727-1.043,1.138-2.213,1.232-3.51V330.164z"/>
		<path d="M545.198,321.627v18.545h-1.992l-0.143-3.936c-0.601,1.297-1.629,2.363-3.082,3.201c-1.455,0.838-3.005,1.258-4.648,1.258
			c-1.707,0-3.092-0.516-4.15-1.543c-1.06-1.027-1.621-2.363-1.684-4.008v-13.518h2.229v12.854c0.063,1.266,0.458,2.277,1.186,3.035
			c0.728,0.76,1.786,1.172,3.178,1.234c1.201,0,2.331-0.316,3.392-0.949c1.059-0.631,1.904-1.502,2.537-2.607
			c0.632-1.107,0.948-2.34,0.948-3.701v-9.865H545.198z"/>
		<path d="M565.972,336.568l1.139,1.611c-0.918,0.729-1.953,1.305-3.107,1.732c-1.154,0.426-2.316,0.641-3.485,0.641
			c-1.897,0-3.598-0.428-5.099-1.281c-1.502-0.854-2.672-2.016-3.51-3.486s-1.258-3.121-1.258-4.957c0-1.77,0.443-3.406,1.328-4.908
			s2.088-2.695,3.605-3.58s3.178-1.328,4.98-1.328c2.149,0,3.983,0.633,5.501,1.896c1.519,1.266,2.624,2.973,3.32,5.123
			l-15.841,6.117c0.6,1.328,1.524,2.404,2.773,3.227s2.664,1.232,4.246,1.232C562.557,338.607,564.358,337.928,565.972,336.568z
			 M556.581,323.951c-1.17,0.697-2.088,1.637-2.752,2.822c-0.663,1.186-0.995,2.506-0.995,3.961c0,0.664,0.063,1.25,0.189,1.754
			l13.659-5.359c-0.601-1.264-1.438-2.283-2.514-3.059c-1.074-0.775-2.324-1.162-3.746-1.162
			C559.03,322.908,557.75,323.256,556.581,323.951z"/>
	</g>
	<g>
		<g>
			<path d="M495.706,317.652c-1.533,0-2.781-1.246-2.781-2.779s1.248-2.781,2.781-2.781s2.781,1.248,2.781,2.781
				S497.239,317.652,495.706,317.652z M495.706,313.719c-0.637,0-1.154,0.518-1.154,1.154s0.518,1.154,1.154,1.154
				s1.155-0.518,1.155-1.154S496.343,313.719,495.706,313.719z"/>
		</g>
	</g>
</g>
</svg>
